<?xml version="1.0" encoding="UTF-8"?>
<svg xmlns="http://www.w3.org/2000/svg" xmlns:xlink="http://www.w3.org/1999/xlink" width="400pt" height="400pt" viewBox="0 0 400 400">
<path fill-rule="nonzero" fill="#0D2A54" fill-opacity="1" d="M 206.40625 54.6875 C 201.511719 55.78125 197.242188 58.359375 193.59375 62.421875 C 190.625 65.597656 188.59375 69.113281 187.5 72.96875 C 187.082031 74.480469 186.875 77.890625 186.875 83.203125 L 186.875 176.953125 C 186.875 184.402344 186.980469 189.324219 187.1875 191.71875 C 187.394531 193.386719 187.839844 195.078125 188.515625 196.796875 L 188.828125 197.109375 C 189.871094 200.078125 191.773438 202.917969 194.53125 205.625 C 197.34375 208.28125 200.132812 210.128906 202.890625 211.171875 L 203.203125 211.484375 C 204.921875 212.160156 206.617188 212.605469 208.28125 212.8125 C 210.679688 213.019531 215.703125 213.125 223.359375 213.125 L 312.03125 213.125 C 319.0625 213.125 323.75 212.917969 326.09375 212.5 C 327.8125 212.292969 329.507812 211.746094 331.171875 210.859375 L 332.1875 210.546875 C 334.117188 209.503906 336.199219 207.863281 338.4375 205.625 C 340.679688 203.386719 342.320312 201.199219 343.359375 199.0625 C 344.871094 196.042969 345.730469 192.941406 345.9375 189.765625 C 346.148438 186.535156 345.703125 182.265625 344.609375 176.953125 C 340.601562 151.796875 330.914062 129.347656 315.546875 109.609375 C 300.183594 89.871094 280.964844 75.105469 257.890625 65.3125 C 248.726562 61.457031 239.011719 58.464844 228.75 56.328125 C 218.542969 54.191406 211.09375 53.644531 206.40625 54.6875 Z M 143.359375 64.921875 C 141.433594 65.390625 137.734375 67.058594 132.265625 69.921875 C 126.847656 72.785156 122.109375 75.625 118.046875 78.4375 C 111.222656 83.125 104.503906 88.621094 97.890625 94.921875 C 91.277344 101.171875 85.519531 107.707031 80.625 114.53125 C 70.417969 129.0625 62.996094 144.921875 58.359375 162.109375 C 53.777344 179.246094 52.34375 196.613281 54.0625 214.21875 C 55.78125 231.824219 60.597656 248.621094 68.515625 264.609375 C 74.660156 277.214844 82.527344 288.75 92.109375 299.21875 C 101.746094 309.636719 112.527344 318.488281 124.453125 325.78125 C 142.628906 336.667969 162.265625 343.28125 183.359375 345.625 C 200.652344 347.550781 217.710938 346.484375 234.53125 342.421875 C 251.40625 338.359375 267.214844 331.40625 281.953125 321.5625 C 290.445312 315.832031 298.464844 309.035156 306.015625 301.171875 C 313.621094 293.253906 320.105469 284.816406 325.46875 275.859375 C 329.742188 269.035156 332.8125 262.941406 334.6875 257.578125 C 335.574219 255.441406 336.015625 253.542969 336.015625 251.875 C 336.015625 248.019531 334.714844 244.871094 332.109375 242.421875 C 329.558594 239.972656 326.511719 238.699219 322.96875 238.59375 C 319.480469 238.488281 316.355469 239.714844 313.59375 242.265625 C 312.554688 243.097656 310.625 246.40625 307.8125 252.1875 C 303.804688 260.261719 299.558594 267.292969 295.078125 273.28125 C 282.683594 289.269531 267.1875 301.378906 248.59375 309.609375 C 230.054688 317.839844 210.859375 321.199219 191.015625 319.6875 C 167.996094 317.761719 147.371094 310.128906 129.140625 296.796875 C 110.910156 283.464844 97.421875 266.015625 88.671875 244.453125 C 83.097656 230.808594 80.3125 216.09375 80.3125 200.3125 C 80.3125 192.65625 80.78125 185.730469 81.71875 179.53125 C 82.707031 173.332031 84.375 166.824219 86.71875 160 C 92.03125 144.84375 100.027344 131.40625 110.703125 119.6875 C 121.378906 107.96875 134.089844 98.566406 148.828125 91.484375 C 152.003906 90.027344 154.21875 88.722656 155.46875 87.578125 C 156.769531 86.378906 157.839844 84.972656 158.671875 83.359375 C 159.558594 81.746094 160 79.921875 160 77.890625 C 160 75.859375 159.582031 74.011719 158.75 72.34375 C 157.449219 69.53125 155.285156 67.394531 152.265625 65.9375 C 149.296875 64.425781 146.328125 64.089844 143.359375 64.921875 Z M 220.46875 81.953125 C 239.011719 84.921875 256.121094 92.265625 271.796875 103.984375 C 287.527344 115.703125 299.53125 130.207031 307.8125 147.5 C 313.386719 159.011719 317.136719 171.484375 319.0625 184.921875 L 319.375 186.875 L 213.125 186.875 L 213.125 80.625 Z M 220.46875 81.953125 "/>
</svg>
