<?xml version="1.0" encoding="UTF-8"?>
<svg xmlns="http://www.w3.org/2000/svg" xmlns:xlink="http://www.w3.org/1999/xlink" width="400pt" height="400pt" viewBox="0 0 400 400">
<path fill-rule="nonzero" fill="#0D2A54" fill-opacity="1" d="M 76.484375 67.1875 C 74.558594 67.8125 72.734375 68.933594 71.015625 70.546875 C 69.347656 72.160156 68.230469 73.777344 67.65625 75.390625 C 67.136719 76.953125 64.53125 102.707031 59.84375 152.65625 L 53.125 227.5 L 54.0625 230.390625 C 54.480469 232.316406 55.339844 234.035156 56.640625 235.546875 C 58.566406 237.683594 74.035156 253.152344 103.046875 281.953125 C 132.058594 310.753906 147.214844 325.675781 148.515625 326.71875 C 152.527344 329.6875 157.109375 331.925781 162.265625 333.4375 C 164.609375 334.0625 167.628906 334.503906 171.328125 334.765625 C 175.078125 334.972656 178.230469 334.738281 180.78125 334.0625 C 189.738281 332.34375 197.214844 328.410156 203.203125 322.265625 C 206.171875 319.035156 208.515625 315.730469 210.234375 312.34375 L 211.875 309.140625 C 211.875 309.140625 213.046875 309.660156 215.390625 310.703125 C 218.152344 312.214844 220.703125 313.230469 223.046875 313.75 C 225.390625 314.269531 228.257812 314.53125 231.640625 314.53125 C 235.703125 314.738281 239.273438 314.53125 242.34375 313.90625 C 245.46875 313.28125 248.75 312.109375 252.1875 310.390625 C 259.429688 306.746094 265.078125 301.40625 269.140625 294.375 C 269.976562 292.917969 270.859375 291.121094 271.796875 288.984375 C 272.789062 286.847656 273.386719 285.027344 273.59375 283.515625 L 274.21875 281.25 L 280.3125 281.25 C 283.75 281.25 286.460938 281.042969 288.4375 280.625 C 290.46875 280.207031 293.101562 279.347656 296.328125 278.046875 C 301.015625 276.378906 305.390625 273.515625 309.453125 269.453125 C 313.515625 265.390625 316.433594 261.066406 318.203125 256.484375 C 320.027344 251.902344 321.148438 247.472656 321.5625 243.203125 L 321.5625 240 L 329.296875 240 C 332.683594 239.792969 334.84375 239.636719 335.78125 239.53125 C 336.773438 239.425781 337.710938 239.167969 338.59375 238.75 C 340.46875 237.863281 342.164062 236.484375 343.671875 234.609375 C 345.183594 232.683594 346.148438 230.652344 346.5625 228.515625 C 346.773438 227.421875 344.585938 202.03125 340 152.34375 C 335.417969 102.605469 332.917969 77.058594 332.5 75.703125 C 332.085938 74.296875 331.226562 72.863281 329.921875 71.40625 C 328.621094 69.894531 327.265625 68.828125 325.859375 68.203125 C 324.507812 67.527344 322.867188 67.082031 320.9375 66.875 C 319.011719 66.667969 317.242188 66.824219 315.625 67.34375 C 314.0625 67.863281 312.476562 68.933594 310.859375 70.546875 C 309.296875 72.160156 308.230469 73.671875 307.65625 75.078125 C 307.136719 76.433594 306.875 78.074219 306.875 80 C 306.875 81.042969 306.824219 81.746094 306.71875 82.109375 C 306.617188 82.421875 306.355469 82.578125 305.9375 82.578125 C 303.804688 83.203125 301.015625 83.800781 297.578125 84.375 C 294.195312 84.894531 292.058594 85.15625 291.171875 85.15625 C 289.039062 85.15625 285.835938 83.855469 281.5625 81.25 C 275.210938 77.449219 269.246094 74.53125 263.671875 72.5 C 258.152344 70.46875 252.1875 68.90625 245.78125 67.8125 C 242.34375 67.1875 237.578125 66.875 231.484375 66.875 C 225.445312 66.875 220.703125 67.1875 217.265625 67.8125 C 206.589844 69.738281 197.007812 73.152344 188.515625 78.046875 L 184.609375 80 L 93.125 80 L 93.125 78.75 C 93.125 78.074219 92.917969 77.003906 92.5 75.546875 C 92.082031 74.035156 91.015625 72.421875 89.296875 70.703125 C 87.578125 68.984375 86.066406 67.917969 84.765625 67.5 C 83.515625 67.082031 82.03125 66.875 80.3125 66.875 C 78.59375 66.875 77.316406 66.980469 76.484375 67.1875 Z M 242.578125 94.0625 C 246.640625 94.738281 250.46875 95.832031 254.0625 97.34375 C 257.710938 98.800781 262.085938 101.015625 267.1875 103.984375 C 271.875 106.535156 275.078125 108.253906 276.796875 109.140625 C 280.652344 110.597656 284.585938 111.457031 288.59375 111.71875 C 292.65625 111.925781 297.371094 111.484375 302.734375 110.390625 C 306.796875 109.558594 308.882812 109.191406 308.984375 109.296875 C 309.089844 109.402344 310.730469 126.300781 313.90625 160 L 318.75 213.125 L 312.34375 213.125 L 283.828125 184.921875 C 269.558594 170.652344 260.445312 161.71875 256.484375 158.125 C 252.527344 154.480469 249.0625 151.796875 246.09375 150.078125 C 239.273438 146.222656 231.746094 144.035156 223.515625 143.515625 C 215.289062 142.996094 207.554688 144.21875 200.3125 147.1875 C 196.042969 148.90625 192.34375 150.886719 189.21875 153.125 C 186.144531 155.363281 181.953125 159.113281 176.640625 164.375 C 171.328125 169.582031 168.230469 172.394531 167.34375 172.8125 C 165.417969 174.0625 162.917969 174.6875 159.84375 174.6875 C 156.769531 174.6875 154.167969 174.0625 152.03125 172.8125 C 147.550781 169.84375 145.3125 165.574219 145.3125 160 C 145.3125 157.449219 145.832031 155.105469 146.875 152.96875 C 147.292969 152.136719 154.375 144.792969 168.125 130.9375 C 181.925781 117.03125 189.894531 109.21875 192.03125 107.5 C 202.03125 99.425781 213.648438 94.84375 226.875 93.75 C 231.773438 93.125 237.007812 93.230469 242.578125 94.0625 Z M 140.78125 120 C 133.75 127.238281 129.167969 132.214844 127.03125 134.921875 C 124.894531 137.578125 123.125 140.519531 121.71875 143.75 C 120.363281 146.925781 119.53125 149.53125 119.21875 151.5625 C 118.90625 153.542969 118.75 156.355469 118.75 160 C 118.75 163.644531 118.90625 166.484375 119.21875 168.515625 C 119.53125 170.496094 120.441406 173.097656 121.953125 176.328125 C 123.621094 181.015625 126.484375 185.390625 130.546875 189.453125 C 134.609375 193.515625 138.984375 196.378906 143.671875 198.046875 C 146.902344 199.558594 149.503906 200.46875 151.484375 200.78125 C 153.515625 201.09375 156.355469 201.25 160 201.25 C 163.644531 201.25 166.457031 201.09375 168.4375 200.78125 C 170.46875 200.46875 172.96875 199.6875 175.9375 198.4375 C 178.957031 197.136719 181.746094 195.519531 184.296875 193.59375 C 186.847656 191.667969 190.597656 188.253906 195.546875 183.359375 C 199.820312 179.296875 202.578125 176.746094 203.828125 175.703125 C 205.132812 174.609375 206.511719 173.644531 207.96875 172.8125 C 215.886719 168.957031 223.90625 168.957031 232.03125 172.8125 C 233.699219 173.644531 235.859375 175.363281 238.515625 177.96875 C 241.226562 180.519531 249.714844 188.828125 263.984375 202.890625 L 268.828125 207.96875 C 278.414062 217.394531 284.480469 223.488281 287.03125 226.25 C 290.679688 229.894531 292.917969 232.550781 293.75 234.21875 C 294.375 235.519531 294.6875 237.136719 294.6875 239.0625 L 294.6875 240 C 294.6875 241.71875 294.585938 242.890625 294.375 243.515625 C 294.167969 244.140625 293.855469 245 293.4375 246.09375 C 291.511719 250.363281 288.515625 253.019531 284.453125 254.0625 C 282.527344 254.738281 280.390625 254.972656 278.046875 254.765625 C 275.703125 254.503906 273.90625 253.855469 272.65625 252.8125 C 271.773438 252.394531 265.234375 246.171875 253.046875 234.140625 C 240.914062 222.058594 234.324219 215.703125 233.28125 215.078125 C 231.5625 213.984375 229.480469 213.4375 227.03125 213.4375 C 224.585938 213.4375 222.398438 213.984375 220.46875 215.078125 C 217.292969 216.535156 215.15625 219.035156 214.0625 222.578125 C 213.023438 226.066406 213.359375 229.53125 215.078125 232.96875 C 215.496094 234.011719 220.703125 239.660156 230.703125 249.921875 L 242.265625 261.40625 C 244.609375 264.011719 246.09375 265.859375 246.71875 266.953125 C 247.34375 267.996094 247.761719 269.347656 247.96875 271.015625 C 248.648438 276.171875 247.164062 280.546875 243.515625 284.140625 C 239.039062 288.410156 233.699219 289.375 227.5 287.03125 C 226.667969 286.613281 225.289062 285.597656 223.359375 283.984375 C 221.433594 282.371094 217.058594 278.046875 210.234375 271.015625 C 199.976562 261.015625 194.324219 255.703125 193.28125 255.078125 C 191.5625 253.984375 189.480469 253.4375 187.03125 253.4375 C 184.582031 253.4375 182.394531 253.984375 180.46875 255.078125 C 177.292969 256.535156 175.15625 259.035156 174.0625 262.578125 C 173.019531 266.066406 173.230469 269.53125 174.6875 272.96875 C 175.363281 274.011719 177.394531 276.25 180.78125 279.6875 C 183.542969 282.449219 185.339844 284.582031 186.171875 286.09375 C 187.058594 287.550781 187.605469 289.246094 187.8125 291.171875 C 188.699219 296.121094 187.316406 300.390625 183.671875 303.984375 C 179.191406 308.253906 173.855469 309.324219 167.65625 307.1875 C 166.613281 306.769531 163.90625 304.425781 159.53125 300.15625 C 155.15625 295.886719 142.941406 283.828125 122.890625 263.984375 L 80.625 221.40625 L 90.859375 106.875 L 154.21875 106.875 Z M 140.78125 120 "/>
</svg>
