<?xml version="1.0" encoding="UTF-8"?>
<svg xmlns="http://www.w3.org/2000/svg" xmlns:xlink="http://www.w3.org/1999/xlink" width="635.7pt" height="669.1pt" viewBox="188.8 173.3 635.7 669.1">
<path fill-rule="nonzero" fill="#FFFFFF" fill-opacity="1" d="M 245.347656 733.191406 C 251.949219 727.90625 258.6875 724.242188 265.449219 723.273438 C 306.644531 717.394531 337.542969 697.535156 337.542969 697.535156 C 277.316406 684.492188 228.464844 667.167969 188.804688 647.304688 C 203.234375 678.867188 222.339844 707.832031 245.347656 733.183594 Z M 245.347656 733.191406 "/>
<path fill-rule="nonzero" fill="#FFFFFF" fill-opacity="1" d="M 491.5 173.285156 C 372.128906 173.285156 267.484375 236.421875 208.695312 331.234375 C 216.863281 453.742188 279.449219 628.96875 446.832031 630.675781 C 446.890625 630.53125 446.953125 630.425781 446.996094 630.378906 C 447.472656 629.964844 457.652344 627.613281 459.273438 627.363281 C 464.664062 626.527344 475.625 625.21875 480.75 625.355469 C 504.679688 626.019531 535.304688 654.417969 549.417969 627.699219 C 563.394531 601.226562 523.664062 591.675781 505.277344 579.914062 C 491.566406 571.144531 477.671875 556.84375 472.175781 541.683594 C 470.59375 537.304688 464.816406 534.328125 464.089844 547.925781 C 461.132812 545.355469 460.460938 541.238281 460.398438 540.207031 C 460.074219 534.050781 465.300781 532.332031 465.558594 526.144531 C 462.09375 527.730469 443.5625 532.65625 441.273438 529.1875 C 438.84375 525.507812 447.082031 523.824219 450.839844 522.566406 C 457.464844 520.359375 463.667969 512.71875 461.875 510.808594 C 458.328125 512.363281 444.820312 514.722656 445.6875 508.601562 C 446.007812 506.371094 456.722656 501.246094 460.398438 496.839844 C 475.773438 478.394531 480.375 452.578125 520.722656 441.699219 C 533.050781 438.375 541.394531 436.984375 549.273438 437.195312 C 550.425781 437.226562 551.179688 438.398438 550.765625 439.464844 L 549.222656 443.402344 C 548.933594 444.4375 547.125 450.46875 546.097656 450.152344 C 536.53125 447.210938 522.691406 454.472656 529.179688 464.851562 C 532.855469 470.730469 542.785156 471.835938 545.054688 466.007812 C 543.480469 464.230469 544.757812 463.855469 546.171875 464.1875 C 553.820312 465.960938 539.84375 478.457031 542.785156 479.199219 L 553.84375 479.582031 C 559.929688 492.808594 540.828125 497.367188 539.988281 514.207031 C 538.367188 546.832031 571.304688 551.789062 591.332031 564.480469 C 611.835938 577.480469 622.015625 594.449219 627.667969 617.507812 C 632.554688 637.457031 631.207031 662.820312 623.703125 677.703125 C 623.703125 677.703125 623.832031 669.238281 622.230469 666.675781 C 621.292969 665.179688 619.71875 665.730469 619.769531 666.691406 C 620.632812 683.886719 615.613281 702.699219 604.578125 715.199219 C 601.015625 719.359375 606.355469 710.289062 604.832031 705.316406 C 604.335938 703.675781 601.988281 703.695312 601.445312 705.316406 C 596.777344 719.441406 595.199219 730.03125 582.800781 737.96875 C 581.871094 738.5625 580.660156 737.816406 580.789062 736.71875 C 581.628906 729.464844 581.605469 713 578.082031 724.746094 C 577.476562 727.097656 573.007812 739.09375 571.464844 740.921875 C 523.082031 798.375 465.914062 817.535156 417.976562 834.15625 C 441.632812 839.515625 466.207031 842.429688 491.484375 842.429688 C 675.40625 842.429688 824.5 692.640625 824.5 507.859375 C 824.5 323.078125 675.421875 173.285156 491.5 173.285156 Z M 504.347656 198.742188 C 474.464844 230.949219 431.667969 343.976562 430.238281 372.578125 C 428.761719 401.988281 439.804688 420.363281 429.503906 432.863281 C 398.691406 469.441406 407.652344 569.292969 435.023438 614.824219 C 275.378906 575.121094 234.925781 378.820312 286.164062 303.035156 C 287.042969 319.828125 293.191406 340.539062 311.425781 362.648438 C 299.597656 333.691406 303.460938 306.375 312.847656 283.109375 C 320.917969 263.117188 335.289062 246.292969 353.605469 234.910156 C 357.125 232.726562 360.792969 230.5625 364.609375 228.425781 C 357.25 243.230469 351.074219 268.878906 367.839844 303.003906 C 362 265.082031 381.921875 236.363281 402.335938 216.566406 C 409.648438 209.476562 418.484375 204.171875 428.140625 200.933594 C 431.175781 199.921875 434.269531 198.917969 437.421875 197.925781 C 430.742188 208.003906 410.566406 242.03125 425.457031 265.589844 C 423.945312 241.351562 446.027344 218.070312 467.757812 201.0625 C 476.3125 194.367188 486.6875 190.414062 497.535156 189.75 C 502.230469 189.460938 506.003906 189.242188 510.625 189.160156 C 508.976562 193.398438 505.988281 196.960938 504.347656 198.71875 Z M 745.84375 375.527344 C 723.773438 415.222656 712.792969 445.5625 681.84375 479.191406 C 660.007812 502.910156 618.015625 532.621094 585.480469 534.117188 C 580.109375 534.367188 569.679688 534.511719 564.871094 533.59375 C 555.808594 531.871094 552.367188 521.09375 552.367188 513.746094 C 552.367188 501.496094 570.089844 497.867188 572.054688 484.957031 C 572.636719 481.140625 563.167969 480.71875 562.667969 477.722656 C 561.933594 473.308594 623.144531 429.351562 646.195312 417.703125 C 684.703125 398.238281 711.785156 381.710938 747.316406 357.152344 C 748.253906 355.914062 755.355469 349.125 761.292969 354.210938 C 766.445312 358.625 751.847656 364.734375 745.84375 375.535156 Z M 753.203125 335.089844 C 748.050781 335.824219 744.285156 342.164062 730.398438 351.996094 C 713.207031 364.167969 687.046875 380.816406 674.394531 388.542969 C 635.496094 412.289062 600.917969 440.960938 563.394531 463.753906 C 560.996094 465.214844 549.417969 477.722656 550.894531 473.308594 C 564.136719 453.460938 545.742188 442.433594 563.394531 435.078125 C 593.042969 422.738281 625.996094 400.210938 648.730469 387.296875 C 675.375 372.15625 691.402344 360.824219 727.449219 340.242188 C 732.691406 337.25 738.40625 331.332031 742.902344 327.742188 C 746.578125 324.800781 755.242188 325.203125 760.554688 328.476562 C 763.925781 330.546875 767.179688 340.238281 765.703125 340.238281 C 762.027344 337.296875 759.796875 334.152344 753.203125 335.089844 Z M 753.203125 335.089844 "/>
</svg>
